<svg width="421" height="421" viewBox="0 0 421 421" fill="none" xmlns="http://www.w3.org/2000/svg">
<rect width="420.012" height="420.012" fill="white"/>
<path d="M39 72V348.859H381V72H39ZM120.431 173.788V198.216H87.8606V173.788H120.431ZM87.8606 149.36V124.932H120.431V149.36H87.8606ZM120.431 222.643V247.071H87.8606V222.643H120.431ZM120.431 271.499V295.927H87.8606V271.499H120.431ZM251.384 271.477L210 249.72L168.616 271.477L176.52 225.396L143.038 192.76L189.308 186.037L210 144.11L230.692 186.037L276.962 192.76L243.48 225.396L251.384 271.477ZM332.139 173.788V198.216H299.569V173.788H332.139ZM299.569 149.36V124.932H332.139V149.36H299.569ZM332.139 222.643V247.071H299.569V222.643H332.139ZM332.139 271.499V295.927H299.569V271.499H332.139Z" fill="#1E293B"/>
</svg>
